<svg width="24" height="34" viewBox="0 0 24 34" fill="none" xmlns="http://www.w3.org/2000/svg">
<path d="M12.2368 0.236877C8.97369 0.236877 6.18422 1.38161 3.86843 3.67109C1.55264 5.96056 0.394743 8.73687 0.394743 12C0.394743 13.6316 0.802637 15.5132 1.61843 17.6448C2.43422 19.7763 3.42106 21.75 4.57895 23.5658C5.73685 25.3816 6.89474 27.0921 8.05264 28.6974C9.21053 30.3027 10.1842 31.579 10.9737 32.5263L12.2368 33.8684C12.5526 33.5527 12.9737 33.079 13.5 32.4474C14.0263 31.8158 14.9605 30.5921 16.3026 28.7763C17.6447 26.9606 18.8421 25.1974 19.8947 23.4869C20.9474 21.7763 21.8947 19.8421 22.7368 17.6842C23.5789 15.5263 24 13.6316 24 12C24 8.73687 22.8553 5.96056 20.5658 3.67109C18.2763 1.38161 15.5 0.236877 12.2368 0.236877ZM12.2368 16.1842C11.0789 16.1842 10.079 15.7763 9.23685 14.9606C8.39474 14.1448 7.97369 13.1579 7.97369 12C7.97369 10.8421 8.39474 9.8553 9.23685 9.03951C10.079 8.22372 11.0789 7.81582 12.2368 7.81582C13.3947 7.81582 14.3816 8.22372 15.1974 9.03951C16.0132 9.8553 16.4211 10.8421 16.4211 12C16.4211 13.1579 16.0132 14.1448 15.1974 14.9606C14.3816 15.7763 13.3947 16.1842 12.2368 16.1842Z" fill="#DE5E6D"/>
</svg>
