<svg width="30" height="22" viewBox="0 0 30 22" fill="none" xmlns="http://www.w3.org/2000/svg">
<path d="M29.0625 2.5H0.9375C0.68886 2.5 0.450403 2.40123 0.274587 2.22541C0.0987721 2.0496 0 1.81114 0 1.5625C0 1.31386 0.0987721 1.0754 0.274587 0.899588C0.450403 0.723772 0.68886 0.625 0.9375 0.625H29.0625C29.3111 0.625 29.5496 0.723772 29.7254 0.899588C29.9012 1.0754 30 1.31386 30 1.5625C30 1.81114 29.9012 2.0496 29.7254 2.22541C29.5496 2.40123 29.3111 2.5 29.0625 2.5Z" fill="#E7DECF"/>
<path d="M29.0625 11.875H0.9375C0.68886 11.875 0.450403 11.7762 0.274587 11.6004C0.0987721 11.4246 0 11.1861 0 10.9375C0 10.6889 0.0987721 10.4504 0.274587 10.2746C0.450403 10.0988 0.68886 10 0.9375 10H29.0625C29.3111 10 29.5496 10.0988 29.7254 10.2746C29.9012 10.4504 30 10.6889 30 10.9375C30 11.1861 29.9012 11.4246 29.7254 11.6004C29.5496 11.7762 29.3111 11.875 29.0625 11.875Z" fill="#E7DECF"/>
<path d="M29.0625 21.25H0.9375C0.68886 21.25 0.450403 21.1512 0.274587 20.9754C0.0987721 20.7996 0 20.5611 0 20.3125C0 20.0639 0.0987721 19.8254 0.274587 19.6496C0.450403 19.4738 0.68886 19.375 0.9375 19.375H29.0625C29.3111 19.375 29.5496 19.4738 29.7254 19.6496C29.9012 19.8254 30 20.0639 30 20.3125C30 20.5611 29.9012 20.7996 29.7254 20.9754C29.5496 21.1512 29.3111 21.25 29.0625 21.25Z" fill="#E7DECF"/>
</svg>
