<svg width="24" height="24" viewBox="0 0 24 24" fill="none" xmlns="http://www.w3.org/2000/svg">
<path fill-rule="evenodd" clip-rule="evenodd" d="M22.9774 1.02372C23.0647 1.1108 23.134 1.21426 23.1813 1.32815C23.2285 1.44205 23.2529 1.56415 23.2529 1.68747C23.2529 1.81078 23.2285 1.93288 23.1813 2.04678C23.134 2.16068 23.0647 2.26413 22.9774 2.35122L2.35243 22.9762C2.1764 23.1523 1.93764 23.2511 1.68868 23.2511C1.43973 23.2511 1.20097 23.1523 1.02493 22.9762C0.848897 22.8002 0.75 22.5614 0.75 22.3125C0.75 22.0635 0.848897 21.8248 1.02493 21.6487L21.6499 1.02372C21.737 0.936411 21.8405 0.867143 21.9544 0.819881C22.0683 0.772619 22.1904 0.748291 22.3137 0.748291C22.437 0.748291 22.5591 0.772619 22.673 0.819881C22.7869 0.867143 22.8903 0.936411 22.9774 1.02372Z" fill="#E7DECF"/>
<path fill-rule="evenodd" clip-rule="evenodd" d="M1.02543 1.02372C0.93812 1.1108 0.868852 1.21426 0.82159 1.32815C0.774328 1.44205 0.75 1.56415 0.75 1.68747C0.75 1.81078 0.774328 1.93288 0.82159 2.04678C0.868852 2.16068 0.93812 2.26413 1.02543 2.35122L21.6504 22.9762C21.8265 23.1523 22.0652 23.2511 22.3142 23.2511C22.5631 23.2511 22.8019 23.1523 22.9779 22.9762C23.154 22.8002 23.2529 22.5614 23.2529 22.3125C23.2529 22.0635 23.154 21.8248 22.9779 21.6487L2.35293 1.02372C2.26584 0.936411 2.16239 0.867143 2.04849 0.819881C1.93459 0.772619 1.81249 0.748291 1.68918 0.748291C1.56586 0.748291 1.44376 0.772619 1.32986 0.819881C1.21597 0.867143 1.11251 0.936411 1.02543 1.02372Z" fill="#E7DECF"/>
</svg>
