<svg width="22" height="24" viewBox="0 0 22 24" fill="none" xmlns="http://www.w3.org/2000/svg">
<path d="M9.29317 0.956372C9.76654 0.556151 10.3663 0.336365 10.9862 0.335938C11.606 0.335511 12.2061 0.55447 12.68 0.954039L20.5667 7.6017C21.1582 8.09987 21.5 8.83487 21.5 9.60837V21.0405C21.5 21.582 21.2849 22.1013 20.902 22.4842C20.5191 22.8671 19.9998 23.0822 19.4583 23.0822H2.54167C2.00039 23.0822 1.48126 22.8673 1.0984 22.4846C0.715549 22.102 0.500309 21.583 0.5 21.0417V9.60837C0.5 8.83604 0.840667 8.10337 1.42983 7.60404L9.29317 0.956372ZM11.5518 2.2922C11.3939 2.1588 11.1939 2.08562 10.9872 2.08562C10.7805 2.08562 10.5804 2.1588 10.4225 2.2922L2.55917 8.93987C2.46214 9.02213 2.38421 9.12455 2.33082 9.24001C2.27742 9.35546 2.24984 9.48117 2.25 9.60837V21.0417C2.25 21.2027 2.38067 21.3334 2.54167 21.3334H19.4583C19.5357 21.3334 19.6099 21.3026 19.6646 21.2479C19.7193 21.1932 19.75 21.1191 19.75 21.0417V9.60837C19.7499 9.48099 19.7219 9.35516 19.6681 9.2397C19.6143 9.12423 19.536 9.02191 19.4385 8.93987L11.5518 2.28987V2.2922Z" fill="#E7DECF"/>
<path d="M15.415 10.502C15.5788 10.6661 15.6709 10.8884 15.6709 11.1203C15.6709 11.3522 15.5788 11.5746 15.415 11.7387L10.1603 16.9933C9.99625 17.1572 9.77385 17.2492 9.54198 17.2492C9.3101 17.2492 9.08771 17.1572 8.92364 16.9933L6.59031 14.66C6.43575 14.4941 6.35161 14.2747 6.35561 14.048C6.3596 13.8214 6.45144 13.6051 6.61175 13.4448C6.77207 13.2844 6.98835 13.1926 7.21503 13.1886C7.44172 13.1846 7.6611 13.2688 7.82698 13.4233L9.54198 15.1383L14.1771 10.502C14.3412 10.3381 14.5636 10.2461 14.7955 10.2461C15.0274 10.2461 15.2497 10.3381 15.4138 10.502H15.415Z" fill="#E7DECF"/>
</svg>
