<svg width="28" height="28" viewBox="0 0 28 28" fill="none" xmlns="http://www.w3.org/2000/svg">
<path d="M14 21.875V25.375" stroke="#E7DECF" stroke-width="1.5" stroke-linecap="round" stroke-linejoin="round"/>
<path d="M14 11.375V14.875" stroke="#E7DECF" stroke-width="1.5" stroke-linecap="round" stroke-linejoin="round"/>
<path d="M14 2.625V4.375" stroke="#E7DECF" stroke-width="1.5" stroke-linecap="round" stroke-linejoin="round"/>
<path d="M22.75 11.375H5.61258C5.4976 11.375 5.38374 11.3524 5.27752 11.3084C5.1713 11.2644 5.07479 11.1998 4.99352 11.1185L1.75 7.875L4.99352 4.63148C5.07479 4.55016 5.1713 4.48564 5.27752 4.44163C5.38374 4.39762 5.4976 4.37498 5.61258 4.375H22.75C22.9821 4.375 23.2046 4.46719 23.3687 4.63128C23.5328 4.79538 23.625 5.01794 23.625 5.25V10.5C23.625 10.7321 23.5328 10.9546 23.3687 11.1187C23.2046 11.2828 22.9821 11.375 22.75 11.375Z" stroke="#E7DECF" stroke-width="1.5" stroke-linecap="round" stroke-linejoin="round"/>
<path d="M5.25 21.875H22.3874C22.5024 21.875 22.6163 21.8524 22.7225 21.8084C22.8287 21.7644 22.9252 21.6998 23.0065 21.6185L26.25 18.375L23.0065 15.1315C22.9252 15.0502 22.8287 14.9856 22.7225 14.9416C22.6163 14.8976 22.5024 14.875 22.3874 14.875H5.25C5.01794 14.875 4.79538 14.9672 4.63128 15.1313C4.46719 15.2954 4.375 15.5179 4.375 15.75V21C4.375 21.2321 4.46719 21.4546 4.63128 21.6187C4.79538 21.7828 5.01794 21.875 5.25 21.875Z" stroke="#E7DECF" stroke-width="1.5" stroke-linecap="round" stroke-linejoin="round"/>
</svg>
