<svg width="18" height="24" viewBox="0 0 18 24" fill="none" xmlns="http://www.w3.org/2000/svg">
<path d="M9.00156 1.50005C8.48157 1.11006 7.86325 0.872566 7.21588 0.814193C6.56852 0.75582 5.91769 0.87887 5.33632 1.16956C4.75495 1.46024 4.26601 1.90708 3.92429 2.45999C3.58256 3.01291 3.40156 3.65006 3.40156 4.30005V6.40005H2.00156C1.63026 6.40005 1.27416 6.54755 1.01161 6.8101C0.749062 7.07265 0.601563 7.42875 0.601562 7.80005V19.0001C0.601562 20.114 1.04406 21.1822 1.83171 21.9699C2.61937 22.7576 3.68765 23.2001 4.80156 23.2001H13.9016C14.8298 23.2001 15.7201 22.8313 16.3764 22.1749C17.0328 21.5185 17.4016 20.6283 17.4016 19.7001V7.80005C17.4016 7.42875 17.2541 7.07265 16.9915 6.8101C16.729 6.54755 16.3729 6.40005 16.0016 6.40005H14.6016V4.30005C14.6016 3.65006 14.4206 3.01291 14.0788 2.45999C13.7371 1.90708 13.2482 1.46024 12.6668 1.16956C12.0854 0.87887 11.4346 0.75582 10.7872 0.814193C10.1399 0.872566 9.52156 1.11006 9.00156 1.50005ZM4.80156 4.30005C4.80156 3.7431 5.02281 3.20895 5.41664 2.81513C5.81047 2.4213 6.34461 2.20005 6.90156 2.20005C7.45852 2.20005 7.99266 2.4213 8.38649 2.81513C8.78031 3.20895 9.00156 3.7431 9.00156 4.30005V6.40005H4.80156V4.30005ZM9.93536 2.55285C10.2516 2.34166 10.6193 2.22031 10.9992 2.20177C11.379 2.18322 11.7568 2.26818 12.0921 2.44756C12.4274 2.62694 12.7078 2.89402 12.9032 3.22028C13.0986 3.54655 13.2017 3.91975 13.2016 4.30005V6.40005H10.4016V4.30005C10.4016 3.66445 10.2322 3.06805 9.93536 2.55285ZM4.80156 21.8001C4.05896 21.8001 3.34677 21.5051 2.82166 20.98C2.29656 20.4548 2.00156 19.7427 2.00156 19.0001V7.80005H10.4016V19.7001C10.4016 20.4883 10.662 21.2149 11.1016 21.8001H4.80156ZM16.0016 19.7001C16.0016 20.257 15.7803 20.7911 15.3865 21.185C14.9927 21.5788 14.4585 21.8001 13.9016 21.8001C13.3446 21.8001 12.8105 21.5788 12.4166 21.185C12.0228 20.7911 11.8016 20.257 11.8016 19.7001V7.80005H16.0016V19.7001Z" fill="#E7DECF"/>
</svg>
