<svg width="24" height="24" viewBox="0 0 24 24" fill="none" xmlns="http://www.w3.org/2000/svg">
<path d="M13.4023 14.1001V18.3001C13.4023 18.4858 13.4761 18.6638 13.6074 18.7951C13.7386 18.9264 13.9167 19.0001 14.1023 19.0001H18.3023C18.488 19.0001 18.666 18.9264 18.7973 18.7951C18.9286 18.6638 19.0023 18.4858 19.0023 18.3001V14.1001C19.0023 13.9145 18.9286 13.7364 18.7973 13.6052C18.666 13.4739 18.488 13.4001 18.3023 13.4001H14.1023C13.9167 13.4001 13.7386 13.4739 13.6074 13.6052C13.4761 13.7364 13.4023 13.9145 13.4023 14.1001ZM14.8023 17.6001V14.8001H17.6023V17.6001H14.8023Z" fill="#E7DECF"/>
<path d="M5.00078 0.800049C4.89818 0.800087 4.79684 0.82268 4.70394 0.866228C4.61104 0.909775 4.52885 0.973213 4.46318 1.05205L0.963181 5.25205C0.85832 5.37779 0.800855 5.53632 0.800781 5.70005V7.80005C0.800781 9.04325 1.34118 10.1618 2.20078 10.9304V22.5C2.20078 22.6857 2.27453 22.8637 2.40581 22.995C2.53708 23.1263 2.71513 23.2 2.90078 23.2H21.1008C21.2864 23.2 21.4645 23.1263 21.5958 22.995C21.727 22.8637 21.8008 22.6857 21.8008 22.5V10.9304C22.6604 10.1604 23.2008 9.04325 23.2008 7.80005V5.70005V5.67485C23.2008 5.54885 23.2008 5.44805 23.0384 5.25205L19.5384 1.05205C19.4727 0.973213 19.3905 0.909775 19.2976 0.866228C19.2047 0.82268 19.1034 0.800087 19.0008 0.800049H5.00078ZM5.00078 10.6C4.25817 10.6 3.54598 10.305 3.02088 9.77995C2.49578 9.25485 2.20078 8.54265 2.20078 7.80005V6.40005H7.80078V7.80005C7.80078 8.54265 7.50578 9.25485 6.98068 9.77995C6.45558 10.305 5.74339 10.6 5.00078 10.6ZM12.0008 10.6C11.2582 10.6 10.546 10.305 10.0209 9.77995C9.49578 9.25485 9.20078 8.54265 9.20078 7.80005V6.40005H14.8008V7.80005C14.8008 8.54265 14.5058 9.25485 13.9807 9.77995C13.4556 10.305 12.7434 10.6 12.0008 10.6ZM19.0008 10.6C18.2582 10.6 17.546 10.305 17.0209 9.77995C16.4958 9.25485 16.2008 8.54265 16.2008 7.80005V6.40005H21.8008V7.80005C21.8008 8.54265 21.5058 9.25485 20.9807 9.77995C20.4556 10.305 19.7434 10.6 19.0008 10.6ZM5.00078 21.8H3.60078V11.762C4.4832 12.0748 5.44488 12.0835 6.3328 11.7867C7.22071 11.4899 7.98385 10.9046 8.50078 10.124C8.8839 10.7014 9.40405 11.175 10.0148 11.5023C10.6255 11.8297 11.3078 12.0007 12.0008 12C12.6938 12.0005 13.3762 11.8293 13.987 11.5017C14.5977 11.1741 15.1178 10.7003 15.5008 10.1226C16.0177 10.9032 16.7809 11.4885 17.6688 11.7853C18.5567 12.0821 19.5184 12.0734 20.4008 11.7606V21.8H12.0008V14.1C12.0008 13.9144 11.927 13.7363 11.7958 13.6051C11.6645 13.4738 11.4864 13.4 11.3008 13.4H5.70078C5.51513 13.4 5.33708 13.4738 5.20581 13.6051C5.07453 13.7363 5.00078 13.9144 5.00078 14.1V21.8ZM7.99678 5.00005H2.99598L5.32838 2.20005H8.92918L7.99678 5.00005ZM14.5292 5.00005H9.47238L10.4048 2.20005H13.5968L14.5292 5.00005ZM16.0048 5.00005L15.0724 2.20005H18.6732L21.007 5.00005H16.0048ZM6.40078 21.8V14.8H10.6008V21.8H6.40078Z" fill="#E7DECF"/>
</svg>
