<svg width="21" height="19" viewBox="0 0 21 19" fill="none" xmlns="http://www.w3.org/2000/svg">
<path d="M19.6875 17.6428H1.3125V13.11C0.823755 12.8679 0.379597 12.5396 0 12.1396V17.6428C0 18.0028 0.138281 18.348 0.384422 18.6025C0.630564 18.857 0.964403 19 1.3125 19H19.6875C20.0356 19 20.3694 18.857 20.6156 18.6025C20.8617 18.348 21 18.0028 21 17.6428V12.1396C20.6232 12.5411 20.1783 12.8677 19.6875 13.1032V17.6428Z" fill="#E7DECF"/>
<path d="M15.0938 13.843C15.2678 13.843 15.4347 13.7715 15.5578 13.6443C15.6809 13.517 15.75 13.3444 15.75 13.1645V9.45947H14.4375V10.8573H7.875V12.2145H14.4375V13.1645C14.4375 13.3444 14.5066 13.517 14.6297 13.6443C14.7528 13.7715 14.9197 13.843 15.0938 13.843Z" fill="#E7DECF"/>
<path d="M20.3438 2.7144H14.4375V1.61512C14.4306 1.18077 14.2575 0.766954 13.9562 0.464265C13.6548 0.161577 13.2498 -0.00531486 12.8297 0.000129123H8.17031C7.75023 -0.00531486 7.34517 0.161577 7.04383 0.464265C6.74248 0.766954 6.56941 1.18077 6.5625 1.61512V2.7144H0.65625C0.482202 2.7144 0.315282 2.78589 0.192211 2.91315C0.0691404 3.04041 0 3.213 0 3.39297V8.82151C0 9.72135 0.345702 10.5843 0.961056 11.2206C1.57641 11.8569 2.41101 12.2144 3.28125 12.2144H5.25V13.1643C5.25 13.3443 5.31914 13.5169 5.44221 13.6442C5.56528 13.7714 5.7322 13.8429 5.90625 13.8429C6.0803 13.8429 6.24722 13.7714 6.37029 13.6442C6.49336 13.5169 6.5625 13.3443 6.5625 13.1643V9.45937H5.25V10.8572H3.28125C2.7591 10.8572 2.25835 10.6427 1.88913 10.261C1.51992 9.87921 1.3125 9.36142 1.3125 8.82151V4.07154H19.6875V8.82151C19.6875 9.36142 19.4801 9.87921 19.1109 10.261C18.7417 10.6427 18.2409 10.8572 17.7188 10.8572H17.0625V12.2144H17.7188C18.589 12.2144 19.4236 11.8569 20.0389 11.2206C20.6543 10.5843 21 9.72135 21 8.82151V3.39297C21 3.213 20.9309 3.04041 20.8078 2.91315C20.6847 2.78589 20.5178 2.7144 20.3438 2.7144ZM13.125 2.7144H7.875V1.64905C7.87838 1.57044 7.91098 1.49621 7.966 1.44185C8.02102 1.38749 8.09421 1.35719 8.17031 1.35727H12.8362C12.8733 1.35636 12.9102 1.36302 12.9447 1.37686C12.9793 1.39069 13.0109 1.41144 13.0377 1.43791C13.0645 1.46437 13.0861 1.49604 13.101 1.53111C13.116 1.56617 13.1241 1.60394 13.125 1.64226V2.7144Z" fill="#E7DECF"/>
</svg>
