<svg width="163" height="44" viewBox="0 0 163 44" fill="none" xmlns="http://www.w3.org/2000/svg">
<g clip-path="url(#clip0_381_3853)">
<path d="M39.5374 38.2187H45.1759V40.1801H44.2155C43.8451 42.4775 42.1166 44.0411 39.167 44.0411C38.4598 44.0834 37.7517 43.9762 37.0888 43.7265C36.4258 43.4769 35.8229 43.0903 35.3194 42.5921C34.8159 42.0939 34.423 41.4951 34.1665 40.835C33.9099 40.1748 33.7954 39.4679 33.8304 38.7605C33.8112 38.0584 33.9361 37.3597 34.1974 36.7076C34.4586 36.0556 34.8507 35.464 35.3495 34.9692C35.8482 34.4744 36.4429 34.087 37.0971 33.8309C37.7513 33.5748 38.4511 33.4554 39.1533 33.48C42.0548 33.48 43.9549 35.2013 44.1332 37.2312H40.8407C40.7508 36.8671 40.5347 36.5467 40.2308 36.3269C39.9268 36.1071 39.5548 36.0023 39.1807 36.0311C37.6237 36.0311 36.8623 37.4027 36.8623 38.7742C36.8623 40.3378 37.6648 41.5654 39.311 41.5654C39.745 41.6073 40.179 41.4857 40.5279 41.2244C40.8769 40.963 41.1156 40.5808 41.1974 40.1527H39.5374V38.2187Z" fill="#E7DECF"/>
<path d="M53.9428 35.9489V37.6976H57.4205V39.8304H53.9428V41.5037H57.4205V43.7051H50.9727V33.6926H57.4205V35.9214L53.9428 35.9489Z" fill="#E7DECF"/>
<path d="M63.3341 38.7263C63.3041 37.6456 63.5974 36.5805 64.1764 35.6673C64.7554 34.7542 65.5937 34.0346 66.5842 33.6007C67.5747 33.1668 68.6722 33.0383 69.7362 33.2316C70.8001 33.4249 71.7822 33.9313 72.5566 34.6859C73.331 35.4406 73.8625 36.4091 74.0831 37.4675C74.3037 38.5259 74.2033 39.6261 73.7948 40.6271C73.3863 41.6282 72.6883 42.4846 71.7901 43.0867C70.892 43.6888 69.8345 44.0092 68.7531 44.0069C68.044 44.0409 67.3356 43.9287 66.6718 43.6772C66.008 43.4257 65.4032 43.0403 64.8948 42.5449C64.3865 42.0496 63.9856 41.4549 63.7171 40.7979C63.4486 40.141 63.3182 39.4358 63.3341 38.7263ZM71.1745 38.7263C71.1477 38.2543 70.9832 37.8004 70.7014 37.4208C70.4195 37.0411 70.0327 36.7523 69.5886 36.5899C69.1444 36.4275 68.6625 36.3987 68.2022 36.5071C67.7419 36.6154 67.3233 36.8561 66.9983 37.1995C66.6732 37.5429 66.4559 37.9739 66.373 38.4394C66.2902 38.9049 66.3455 39.3844 66.5321 39.8188C66.7188 40.2532 67.0285 40.6235 67.4231 40.8839C67.8178 41.1444 68.2802 41.2835 68.7531 41.2843C69.0829 41.2848 69.4094 41.218 69.7125 41.0878C70.0156 40.9577 70.2889 40.767 70.5156 40.5275C70.7424 40.2879 70.9177 40.0046 71.031 39.6949C71.1443 39.3852 71.1932 39.0556 71.1745 38.7263Z" fill="#E7DECF"/>
<path d="M80.2266 33.7201H85.0281C85.8517 33.7138 86.6543 33.9792 87.3119 34.475C87.9694 34.9708 88.4451 35.6695 88.6654 36.4629C88.8857 37.2563 88.8382 38.1002 88.5304 38.8639C88.2225 39.6277 87.6714 40.2686 86.9625 40.6877L88.9654 43.7325H85.4603L83.7592 41.1746H83.1967V43.7051H80.2266V33.7201ZM83.1967 36.038V38.9046H84.4314C84.79 38.8796 85.1258 38.7196 85.371 38.4568C85.6163 38.1939 85.7526 37.8479 85.7526 37.4885C85.7526 37.129 85.6163 36.783 85.371 36.5202C85.1258 36.2573 84.79 36.0973 84.4314 36.0723L83.1967 36.038Z" fill="#E7DECF"/>
<path d="M99.8877 38.2187H105.519V40.1801H104.566C104.189 42.4775 102.46 44.0411 99.5104 44.0411C98.8035 44.0823 98.0959 43.9744 97.4334 43.7243C96.7709 43.4743 96.1685 43.0877 95.6652 42.5897C95.1619 42.0917 94.769 41.4934 94.512 40.8337C94.2551 40.174 94.1398 39.4677 94.1738 38.7605C94.1546 38.0584 94.2795 37.3597 94.5408 36.7076C94.802 36.0556 95.1941 35.464 95.6928 34.9692C96.1916 34.4744 96.7864 34.087 97.4406 33.8309C98.0948 33.5748 98.7945 33.4554 99.4967 33.48C102.405 33.48 104.298 35.2013 104.477 37.2312H101.184C101.096 36.8664 100.88 36.5451 100.575 36.3252C100.271 36.1052 99.8984 36.0009 99.5241 36.0311C97.967 36.0311 97.2056 37.4027 97.2056 38.7742C97.2056 40.3378 98.0082 41.5654 99.6544 41.5654C100.089 41.6075 100.524 41.4861 100.874 41.2249C101.224 40.9637 101.464 40.5814 101.548 40.1527H99.8877V38.2187Z" fill="#E7DECF"/>
<path d="M111.027 33.7202H114.032V43.7052H111.027V33.7202Z" fill="#E7DECF"/>
<path d="M122.275 33.7202H125.389L129.169 43.7327H125.849L125.506 42.5737H122.145L121.802 43.7327H118.578L122.275 33.7202ZM122.776 40.4135H124.889L123.832 36.724L122.776 40.4135Z" fill="#E7DECF"/>
<path d="M32.1432 0.589844L0 0.630989V27.02H7.24349V12.3236C7.24349 10.3554 9.30131 9.01129 12.2166 9.01129C14.9054 9.01129 16.7712 10.3074 16.7712 12.2208V27.02H24.0148V12.3236C24.0148 10.3554 26.0726 9.01129 28.9878 9.01129C31.6767 9.01129 33.5424 10.3074 33.5424 12.2208V27.02H40.786V9.95767C40.786 4.31365 37.322 0.589844 32.1432 0.589844Z" fill="#E7DECF"/>
<path d="M65.2726 5.12969C64.416 3.57416 63.1565 2.27774 61.6261 1.3764C60.0958 0.475067 58.3511 0.00202088 56.575 0.00687289C49.4343 0.00687289 44.0977 5.95949 44.0977 13.8254C44.0977 21.6914 49.4343 27.6372 56.575 27.6372C58.3514 27.6435 60.0966 27.1711 61.6272 26.2696C63.1578 25.3681 64.4171 24.0709 65.2726 22.5144V27.02H72.5162V0.63094H65.2726V5.12969ZM58.4132 19.1677C54.4759 19.1677 51.5538 16.5686 51.5538 13.8254C51.5538 11.0823 54.4485 8.48318 58.4132 8.48318C62.378 8.48318 65.2726 11.0823 65.2726 13.8254C65.2726 16.5686 62.3917 19.1677 58.4407 19.1677H58.4132Z" fill="#E7DECF"/>
<path d="M90.5159 8.48314C91.7545 8.47992 92.9755 8.77561 94.0753 9.34511C95.1752 9.9146 96.1213 10.7411 96.8333 11.7543H104.701C103.713 4.89649 97.9172 0.00683594 90.5159 0.00683594C82.3394 0.00683594 76.1797 5.95945 76.1797 13.8254C76.1797 21.6914 82.3532 27.6371 90.5159 27.6371C97.9172 27.6371 103.713 22.7269 104.701 15.8965H96.8333C96.1205 16.9089 95.1743 17.7348 94.0746 18.3042C92.9749 18.8736 91.7542 19.1698 90.5159 19.1677C86.5854 19.1677 83.6565 16.5686 83.6565 13.8254C83.6565 11.0823 86.5991 8.48314 90.5159 8.48314Z" fill="#E7DECF"/>
<path d="M121.965 0.00683594C113.789 0.00683594 107.629 5.95945 107.629 13.8254C107.629 21.6914 113.802 27.6371 121.965 27.6371C130.128 27.6371 136.301 21.6914 136.301 13.8254C136.301 5.95945 130.141 0.00683594 121.965 0.00683594ZM121.965 19.1677C118.035 19.1677 115.106 16.5686 115.106 13.8254C115.106 11.0823 118.007 8.48314 121.965 8.48314C125.923 8.48314 128.824 11.0823 128.824 13.8254C128.824 16.5686 125.902 19.1677 121.965 19.1677Z" fill="#E7DECF"/>
<path d="M153.267 0.00684008C147.834 0.164571 146.181 5.80172 146.181 5.80172V0.630907H138.938V27.0199H146.181V12.9476C146.181 10.5611 147.553 9.01121 151.175 9.01121C154.604 9.01121 155.75 10.5131 155.75 12.8379V27.0199H163V9.68327C163 3.83352 159.111 -0.18518 153.267 0.00684008Z" fill="#E7DECF"/>
</g>
<defs>
<clipPath id="clip0_381_3853">
<rect width="163" height="44" fill="white"/>
</clipPath>
</defs>
</svg>
