<svg width="80" height="80" viewBox="0 0 80 80" fill="none" xmlns="http://www.w3.org/2000/svg">
<path d="M78.4953 39.9976C78.4953 61.2593 61.2593 78.4953 39.9976 78.4953C18.736 78.4953 1.5 61.2593 1.5 39.9976C1.5 18.736 18.736 1.5 39.9976 1.5C61.2593 1.5 78.4953 18.736 78.4953 39.9976Z" fill="#252525" stroke="#E7DECF" stroke-width="3"/>
<path d="M49.992 25.9866L22.6406 26.0196V48.4835H28.8079V35.9742C28.8079 34.2978 30.5268 33.1408 33.058 33.1408C35.3483 33.1408 36.9349 34.2411 36.9349 35.8703V48.4693H43.1023V35.9742C43.1023 34.2978 44.8212 33.1408 47.3523 33.1408C49.6426 33.1408 51.2293 34.2411 51.2293 35.8703V48.4693H57.373V33.9578C57.373 29.1599 54.3979 25.9866 49.992 25.9866Z" fill="#E7DECF"/>
<path d="M34.5905 58.9244H38.5242V60.2892H37.8584C37.5987 61.8995 36.3897 62.9856 34.3308 62.9856C33.8378 63.0147 33.3441 62.9396 32.882 62.7653C32.4199 62.591 31.9997 62.3214 31.6486 61.9739C31.2976 61.6265 31.0237 61.209 30.8447 60.7487C30.6657 60.2884 30.5856 59.7955 30.6096 59.3022C30.5965 58.8125 30.6837 58.3253 30.8659 57.8706C31.0482 57.4158 31.3215 57.0032 31.6693 56.6582C32.017 56.3131 32.4317 56.0429 32.8878 55.8641C33.3439 55.6854 33.8318 55.6019 34.3214 55.6188C36.352 55.6188 37.6695 56.8183 37.797 58.235H35.502C35.4392 57.9809 35.2886 57.7573 35.0769 57.6035C34.8652 57.4497 34.606 57.3756 34.345 57.3944C33.2541 57.3944 32.7253 58.3389 32.7253 59.3305C32.7253 60.4214 33.2825 61.2808 34.4347 61.2808C34.7385 61.3097 35.042 61.2239 35.2857 61.0404C35.5295 60.857 35.6958 60.589 35.7522 60.2892H34.5905V58.9244Z" fill="#E7DECF"/>
<path d="M44.5722 55.8076H46.7491L49.3841 62.7966H47.0703L46.8294 61.9891H44.4683L44.2275 62.7966H41.9844L44.5722 55.8076ZM44.9216 60.4827H46.3997L45.663 57.9043L44.9216 60.4827Z" fill="#E7DECF"/>
</svg>
