<svg width="225" height="61" viewBox="0 0 225 61" fill="none" xmlns="http://www.w3.org/2000/svg">
<g clip-path="url(#clip0_302_20)">
<path d="M44.3649 23.4214L0 23.4732V60.1353H10.0001V39.7226C10.0001 36.9884 12.7845 35.1191 16.8607 35.1191C20.5767 35.1191 23.1449 36.9159 23.1449 39.5776V60.1353H33.1502V39.7226C33.1502 36.9884 35.9345 35.1191 40.0107 35.1191C43.7267 35.1191 46.2949 36.9159 46.2949 39.5776V60.1353H56.3002V36.4344C56.3002 28.5996 51.5343 23.4214 44.3649 23.4214Z" fill="#E8DED2"/>
<path d="M90.0982 29.7285C87.5248 25.3425 83.3096 22.6135 78.096 22.6135C68.2348 22.6135 60.875 30.8988 60.875 41.8042C60.875 52.7096 68.2348 61 78.096 61C83.3096 61 87.5248 58.2659 90.0982 53.8851V60.1352H100.098V23.4731H90.0982V29.7285ZM80.6642 49.2091C75.2344 49.2091 71.2354 45.5843 71.2354 41.7835C71.2354 37.9826 75.2344 34.363 80.6642 34.363C86.094 34.363 90.0982 37.9878 90.0982 41.7835C90.0982 45.5791 86.094 49.2091 80.6642 49.2091Z" fill="#E8DED2"/>
<path d="M124.968 34.3837C128.895 34.3837 132.256 36.6311 133.682 38.9302H144.541C143.188 29.4437 135.185 22.6135 124.984 22.6135C113.692 22.6135 105.189 30.8988 105.189 41.8042C105.189 52.7096 113.692 61 124.984 61C135.2 61 143.203 54.1699 144.541 44.6833H133.682C132.256 46.9825 128.895 49.2298 124.968 49.2298C119.539 49.2298 115.534 45.605 115.534 41.8042C115.534 38.0033 119.539 34.3837 124.968 34.3837Z" fill="#E8DED2"/>
<path d="M168.365 22.6135C157.079 22.6135 148.576 30.8988 148.576 41.8042C148.576 52.7096 157.079 61 168.365 61C179.652 61 188.16 52.7148 188.16 41.8042C188.16 30.8936 179.652 22.6135 168.365 22.6135ZM168.365 49.2298C162.936 49.2298 158.937 45.605 158.937 41.8042C158.937 38.0033 162.936 34.3837 168.365 34.3837C173.795 34.3837 177.799 38.0085 177.799 41.8042C177.799 45.5999 173.79 49.2091 168.365 49.2091V49.2298Z" fill="#E8DED2"/>
<path d="M211.567 22.6135C204.063 22.8258 201.788 30.6657 201.788 30.6657V23.4731H191.783V60.1352H201.783V40.5821C201.783 37.2784 203.677 35.119 208.675 35.119C213.394 35.119 214.995 37.1903 214.995 40.4423V60.1197H224.98V36.0563C224.98 27.9316 219.637 22.3805 211.567 22.6135Z" fill="#E8DED2"/>
<path d="M23.0525 5.70119H19.177V0.37793H15.0391V14.38H19.177V9.16027H23.0525V14.38H27.206V0.37793H23.0525V5.70119Z" fill="#E8DED2"/>
<path d="M35.4551 14.38H44.4207V11.2626H39.5879V8.92207H44.4207V5.93939H39.5879V3.50043H44.4207V0.37793H35.4551V14.38Z" fill="#E8DED2"/>
<path d="M56.9241 0.37793L51.7773 14.3593H56.2499L56.7285 12.7385H61.4018L61.8804 14.3593H66.5125L61.2628 0.37793H56.9241ZM57.6189 9.74023L59.0909 4.56196L60.5628 9.74023H57.6189Z" fill="#E8DED2"/>
<path d="M85.5292 5.60294C85.5464 4.90901 85.4226 4.21885 85.1654 3.57474C84.9082 2.93062 84.5231 2.34611 84.0335 1.85697C83.544 1.36784 82.9604 0.984369 82.3184 0.730073C81.6765 0.475777 80.9897 0.356004 80.3001 0.378065H73.6094V14.3594H77.7268V10.7812H78.4988L80.8663 14.3594H85.7351L82.9558 10.1029C83.7441 9.65116 84.3982 8.99594 84.8506 8.20487C85.3029 7.4138 85.5372 6.51557 85.5292 5.60294ZM79.4664 7.58102H77.7834V3.64037H79.5127C80.0174 3.66634 80.4929 3.88635 80.841 4.25496C81.1891 4.62356 81.3832 5.1126 81.3832 5.62106C81.3832 6.12952 81.1891 6.61855 80.841 6.98715C80.4929 7.35576 80.0174 7.57577 79.5127 7.60174L79.4664 7.58102Z" fill="#E8DED2"/>
<path d="M92.5078 3.94058H95.3694V14.38H99.5074V3.94058H102.369V0.37793H92.5078V3.94058Z" fill="#E8DED2"/>
<path d="M137.887 5.52004C136.616 5.05917 135.977 4.63973 135.977 3.91995C135.977 3.20017 136.574 2.82216 137.254 2.82216C138.185 2.82216 138.623 3.42283 138.623 4.56205H142.74C142.74 2.36129 141.387 0 137.31 0C134.526 0 131.803 1.18064 131.803 4.05976C131.803 6.93888 134.088 7.76223 136.657 8.76164C138.129 9.3416 138.762 9.66265 138.762 10.4394C138.762 11.2161 138.247 11.6408 137.393 11.6408C136.338 11.6408 135.643 10.921 135.643 9.66265H131.525C131.525 12.9405 133.775 14.7632 137.254 14.7632C140.733 14.7632 142.915 13.0803 142.915 10.1805C142.915 7.28065 140.295 6.37963 137.887 5.52004Z" fill="#E8DED2"/>
<path d="M157.131 0.015625C152.359 0.015625 149.596 3.53685 149.596 7.39466C149.596 11.2525 152.359 14.7789 157.131 14.7789C161.902 14.7789 164.686 11.2576 164.686 7.39466C164.686 3.53167 161.922 0.015625 157.131 0.015625ZM157.131 10.978C155.025 10.978 153.77 9.25883 153.77 7.39466C153.77 5.53048 155.025 3.81647 157.131 3.81647C159.236 3.81647 160.491 5.53566 160.491 7.39466C160.491 9.25366 159.256 10.9625 157.131 10.9625V10.978Z" fill="#E8DED2"/>
<path d="M178.998 9.48132C179.01 9.71122 178.976 9.9413 178.898 10.1575C178.819 10.3737 178.697 10.5715 178.54 10.7387C178.383 10.906 178.193 11.0392 177.983 11.1302C177.773 11.2213 177.546 11.2682 177.317 11.2682C177.088 11.2682 176.862 11.2213 176.652 11.1302C176.442 11.0392 176.252 10.906 176.095 10.7387C175.938 10.5715 175.816 10.3737 175.737 10.1575C175.658 9.9413 175.624 9.71122 175.637 9.48132V0.37793H171.52V9.52274C171.52 12.5624 173.727 14.7632 177.325 14.7632C180.923 14.7632 183.151 12.5624 183.151 9.52274V0.37793H179.034L178.998 9.48132Z" fill="#E8DED2"/>
<path d="M194.779 0.37793H190.646V14.38H198.418V10.8225H194.779V0.37793Z" fill="#E8DED2"/>
<path d="M109.73 10.8433C108.345 10.8433 107.326 11.765 107.326 12.7333C107.326 13.7017 108.356 14.6286 109.73 14.6286C111.104 14.6286 112.138 13.7068 112.138 12.7333C112.138 11.7598 111.114 10.8433 109.73 10.8433Z" fill="#E8DED2"/>
<path d="M207.552 10.8433C206.168 10.8433 205.148 11.765 205.148 12.7333C205.148 13.7017 206.178 14.6286 207.552 14.6286C208.926 14.6286 209.961 13.7068 209.961 12.7333C209.961 11.7598 208.936 10.8433 207.552 10.8433Z" fill="#E8DED2"/>
</g>
<defs>
<clipPath id="clip0_302_20">
<rect width="225" height="61" fill="white"/>
</clipPath>
</defs>
</svg>
